<?xml version="1.0" encoding="UTF-8"?>
<svg id="Laag_2" data-name="Laag 2" xmlns="http://www.w3.org/2000/svg" viewBox="0 0 240.94 210.42">
  <defs>
    <style>
      .cls-1 {
        fill: #fff;
      }

      .cls-1, .cls-2 {
        fill-rule: evenodd;
      }

      .cls-3 {
        fill: #35495e;
      }

      .cls-4 {
        fill: #41b883;
      }
    </style>
  </defs>
  <g id="Laag_1-2" data-name="Laag 1">
    <g>
      <g>
        <path class="cls-4" d="M192.75,0h48.19l-120.47,207.81L0,0h92.16l28.31,48.19L148.18,0h44.57Z"/>
        <path class="cls-4" d="M0,0l120.47,207.81L240.94,0h-48.19l-72.28,124.69L47.59,0H0Z"/>
        <path class="cls-3" d="M47.59,0l72.88,125.29L192.75,0h-44.57l-27.71,48.19L92.16,0h-44.57Z"/>
      </g>
      <g>
        <path class="cls-2" d="M140.21,123.26c-5.66,2.11-8.05,6.2-8.2,10.52-.1,2.85.51,5.54,1.76,9.05-.2-.55.74,2.23.92,2.85.39,1.29-3.71-.45-6.2.06-2.77.54-6.46,2.92-8.38,6.08-2.26,3.7-2.37,7.95-.63,15.61.95,4.17,2.79,7.69,5.42,11.02,1.17,1.48,4.35,4.93,4.6,5.24l6.47,7.17c1.15,1.04,1.97,1.8,4.39,4.1,2.4,2.28,3.54,3.34,4.6,4.24.45.38.82,1.37.97,2.85.12,1.22.08,2.57-.07,3.88-.05.45-.1.78-.13.93-.32,1.74,1.01,3.36,2.79,3.37,1.65.02,2.94.04,6.27.09q.72.01,1.45.03c8.91.15,13.36.11,16.6-.29,3.46-.44,7.06-4.66,10.11-9.88,2.61,4.66,6.24,9.19,9.9,9.77,1.15.19,2.56.25,4.18.21,1.22-.03,2.52-.11,3.83-.22.97-.09,1.75-.17,2.21-.23,1.72-.22,2.85-1.92,2.39-3.59-.1-.36-.26-1.03-.42-1.86-.19-.97-.32-1.92-.38-2.79-.04-.54-.05-1.04-.02-1.46.05-.75.06-1.17.08-2.14q0-.34.02-.64c.04-1.04.18-2.02.62-4.15.19-.92,1.12-2.68,2.59-4.87.44-.65.91-1.33,1.42-2.03.97-1.33,2.01-2.68,3.06-3.97.63-.77,1.11-1.35,1.38-1.66,2.26-3.23,4.67-8.52,5.56-11.63.85-2.98,1.54-8.57,1.94-13.85.23-3.05.31-5.52.31-9.38q0-.74,0-1.35,0-.85,0-1.58c0-1.2-.04-2.39-.16-5.3-.24-6.2-3.64-10.21-8.65-10.98-4.26-.66-8.07.62-9.74,2.41-.58.62.03-2.12-1.65-4.75-1.25-1.97-4.52-4.49-7.02-4.98-2.56-.5-5.6-.44-8.4.05-2.45.44-5.23,2.57-6.64,4.93-.95,1.58.3-.05-.71-1.78-1.39-2.39-4.63-4.53-7.73-5.17-2.64-.54-5.65-.34-8.38.48-3.3.98-7.76,4.68-7.23,8.81-2.62-4.12-9.53-5.27-15.08-3.21Z"/>
        <path class="cls-1" d="M169.76,122.78c1.58.32,3.41,1.53,3.94,2.44.64,1.1,1.19,2.78,1.6,4.85.22,1.11.93,9.24,2.24,10.09q3.15.35,4.01-.94.27-.56.32-.78c.11-.46.19-.97.27-1.66l.07-.6v-.07s.03-.24.03-.24c.08-.87.32-3.29.41-4.04.29-2.38.67-4.02,1.06-4.68.54-.91,2.43-2.16,3.29-2.31,2.14-.38,4.49-.42,6.3-.07.83.16,2.83,1.71,3.3,2.44.98,1.55,1.92,6.47,2.46,11.41q-.08.35,1.25,2.21,4.45-.51,4.35-1.33c.12-.29.22-.63.35-1.15.32-1.23.53-1.92.85-2.71.22-.55.45-1.02.69-1.39.92-1.45,3.3-2.43,5.39-2.11,2.24.35,3.67,2.03,3.81,5.55.11,2.85.15,3.99.15,5.11v2.89c0,3.72-.08,6.05-.3,8.95-.37,4.88-1.03,10.23-1.74,12.71-.72,2.52-2.87,7.25-4.58,9.7-.12.12-.64.74-1.3,1.56-1.1,1.36-2.2,2.78-3.24,4.2-.55.76-1.07,1.5-1.55,2.21-1.86,2.77-3.05,5.04-3.44,6.89-.5,2.42-.68,3.7-.74,5.09q-.01.37-.02.74c-.02.91-.03,1.27-.07,1.94-.04.7-.03,1.43.03,2.2.08,1.12.81,2.65.81,2.65,0,0-1.77-.09-2.85-.07-1.31.03-2.4-.02-3.15-.14-1.1-.17-4.04-3.85-5.55-6.72-2.3-4.39-7.9-4.18-10.19-.3-2.05,3.5-5.02,6.99-5.9,7.1-2.85.36-7.21.4-15.79.25-.72-.01-3.51-.1-4.92-.12s.38-1.36.21-3.04c-.28-2.81-1.15-5.11-2.96-6.64-.93-.8-2.04-1.82-4.31-3.98-2.54-2.41-3.37-3.19-4.37-4.06l-6.11-6.79c-.3-.39-3.49-3.85-4.48-5.1-2.14-2.71-3.59-5.48-4.33-8.75-1.44-6.34-1.37-9.23-.07-11.36,1.05-1.72,3.34-3.2,4.62-3.45,1.31-.26,4.2-.13,4.74.17.75.41,1.02.56,1.25.69.27.16.45.29.62.44.26.22.55.55.95,1.07.28.37.6.8,1.09,1.47.46.62.7.92,1.02,1.21,2.14,1.96,5.21.25,4.96-2.49-.04-.46-.17-.97-.42-1.81-.33-1.14.03-.4-1.98-4.32-.66-1.29-1.06-2.2-1.33-3.08l-.26-.78c-.29-.84-.73-2.05-.96-2.68l-.15-.42.02.06-.46-1.35c-.7-2.2-1.02-3.91-.96-5.54.08-2.19,1.22-4.15,4.48-5.37,3.06-1.13,8.22,0,9.19,2.12.33.71.68,1.62,1.06,2.7l.3.89c.42,1.28,1.03,3.16,1.06,3.26.21.64.36,1.06.53,1.41q.02.48,2.7,1.77,3.18-2.22,2.9-2.86c.04-.67.06-1.32.07-2.84.02-1.78.03-2.53.08-3.5.1-2.25.33-3.9.71-4.87.7-1.81,1.93-3.12,3.38-3.56,1.86-.56,3.92-.7,5.59-.36ZM179,155.37c-1.58,0-2.85,1.29-2.84,2.87l.12,26.47c0,1.58,1.29,2.85,2.87,2.84,1.58,0,2.85-1.29,2.84-2.87l-.12-26.47c0-1.58-1.29-2.85-2.87-2.84ZM194.5,155.39c-1.58,0-2.86,1.28-2.86,2.86v26.36c0,1.58,1.28,2.86,2.86,2.86s2.86-1.28,2.86-2.86v-26.36c0-1.58-1.28-2.86-2.86-2.86ZM163.91,155.61c-1.58,0-2.85,1.3-2.84,2.88l.16,26.11c0,1.58,1.3,2.85,2.88,2.84,1.58,0,2.85-1.3,2.84-2.88l-.16-26.11c0-1.58-1.3-2.85-2.88-2.84Z"/>
      </g>
    </g>
  </g>
</svg>